<svg width="330" height="350" viewBox="0 0 330 350" fill="none" xmlns="http://www.w3.org/2000/svg">
<g clip-path="url(#clip0_4_2109)">
<path d="M72.3334 0.422791H252.279C256.818 0.422791 260.503 4.10831 260.503 8.64683V221.661C260.503 226.2 256.818 229.885 252.279 229.885H72.3334C67.7949 229.885 64.1094 226.2 64.1094 221.661V8.64875C64.1094 4.11022 67.7949 0.424703 72.3334 0.424703V0.422791Z" fill="white"/>
<path d="M252.279 230.31H72.3333C67.5653 230.31 63.6847 226.431 63.6847 221.661V8.64863C63.6847 3.8806 67.5634 0 72.3333 0H252.279C257.047 0 260.928 3.87869 260.928 8.64863V221.663C260.928 226.431 257.049 230.311 252.279 230.311V230.31ZM72.3333 0.847268C68.032 0.847268 64.532 4.34727 64.532 8.64863V221.663C64.532 225.964 68.032 229.464 72.3333 229.464H252.279C256.581 229.464 260.081 225.964 260.081 221.663V8.64863C260.081 4.34727 256.581 0.847268 252.279 0.847268H72.3333Z" fill="black"/>
<path d="M260.503 82.6612C260.27 82.6612 260.081 82.4719 260.081 82.2385V56.3596C260.081 56.1262 260.27 55.9369 260.503 55.9369C260.737 55.9369 260.926 56.1262 260.926 56.3596V82.2385C260.926 82.4719 260.737 82.6612 260.503 82.6612Z" fill="black"/>
<path d="M175.815 11.7852H75.0205V218.522H175.815V11.7852Z" fill="white"/>
<path d="M175.815 218.947H75.0206C74.7872 218.947 74.5979 218.758 74.5979 218.524V11.7852C74.5979 11.5519 74.7872 11.3625 75.0206 11.3625H175.815C176.048 11.3625 176.238 11.5519 176.238 11.7852V218.522C176.238 218.756 176.048 218.945 175.815 218.945V218.947ZM75.4433 218.1H175.39V12.2098H75.4433V218.1Z" fill="black"/>
<path d="M249.592 11.7852H186.206V218.522H249.592V11.7852Z" fill="white"/>
<path d="M249.592 218.947H186.206C185.972 218.947 185.783 218.758 185.783 218.524V11.7852C185.783 11.5519 185.972 11.3625 186.206 11.3625H249.592C249.825 11.3625 250.015 11.5519 250.015 11.7852V218.522C250.015 218.756 249.825 218.945 249.592 218.945V218.947ZM186.628 218.1H249.168V12.2098H186.628V218.1Z" fill="black"/>
<path d="M273.751 232.427H45.6643V241.441H273.751V232.427Z" fill="white"/>
<path d="M273.753 241.865H45.6644C45.431 241.865 45.2417 241.676 45.2417 241.443V232.429C45.2417 232.195 45.431 232.006 45.6644 232.006H273.752C273.985 232.006 274.174 232.195 274.174 232.429V241.443C274.174 241.676 273.985 241.865 273.752 241.865H273.753ZM46.089 241.018H273.329V232.851H46.089V241.018Z" fill="black"/>
<path d="M248.085 209.6C247.456 209.39 246.777 209.275 246.06 209.275H244.403V204.597H215.636V221.37C215.636 227.999 221.009 233.373 227.636 233.373H232.404C238.712 233.373 243.877 228.504 244.363 222.319H246.062C249.623 222.319 252.264 219.253 252.264 215.692V215.642C252.264 212.798 250.581 210.436 248.089 209.6H248.085ZM245.819 218.593H244.401V213.003H245.819C247.345 213.003 248.58 214.273 248.58 215.799C248.58 217.325 247.343 218.595 245.819 218.595V218.593Z" fill="white"/>
<path d="M232.402 233.798H227.634C220.783 233.798 215.21 228.223 215.21 221.37V204.597C215.21 204.364 215.399 204.174 215.633 204.174H244.399C244.633 204.174 244.822 204.364 244.822 204.597V208.851H246.056C246.804 208.851 247.53 208.967 248.217 209.197C250.929 210.107 252.681 212.636 252.681 215.64V215.69C252.681 219.578 249.709 222.742 246.056 222.742H244.744C244.055 228.971 238.708 233.796 232.398 233.796L232.402 233.798ZM216.059 205.022V221.37C216.059 227.756 221.252 232.951 227.636 232.951H232.404C238.405 232.951 243.472 228.267 243.94 222.288C243.958 222.068 244.141 221.898 244.363 221.898H246.061C249.301 221.898 251.839 219.173 251.839 215.694V215.644C251.839 213.01 250.313 210.796 247.953 210.004C247.354 209.803 246.718 209.702 246.061 209.702H244.405C244.172 209.702 243.983 209.512 243.983 209.279V205.025H216.063L216.059 205.022ZM245.819 219.018H244.401C244.168 219.018 243.979 218.828 243.979 218.595V213.005C243.979 212.771 244.168 212.582 244.401 212.582H245.819C247.576 212.582 249.005 214.026 249.005 215.801C249.005 217.576 247.576 219.02 245.819 219.02V219.018ZM244.826 218.17H245.819C247.108 218.17 248.158 217.107 248.158 215.799C248.158 214.491 247.108 213.427 245.819 213.427H244.826V218.17Z" fill="black"/>
<path d="M232.402 233.798H227.634C220.783 233.798 215.21 228.223 215.21 221.37V204.597C215.21 204.364 215.399 204.174 215.633 204.174C215.866 204.174 216.055 204.364 216.055 204.597V221.37C216.055 227.756 221.248 232.951 227.632 232.951H232.4C238.402 232.951 243.468 228.267 243.937 222.288C243.954 222.068 244.137 221.898 244.359 221.898H246.058C249.298 221.898 251.836 219.173 251.836 215.694V215.644C251.836 214.428 251.507 213.27 250.883 212.297C250.757 212.1 250.814 211.838 251.011 211.712C251.208 211.586 251.47 211.643 251.596 211.84C252.308 212.949 252.683 214.265 252.683 215.644V215.694C252.683 219.582 249.711 222.745 246.058 222.745H244.746C244.057 228.975 238.71 233.8 232.4 233.8L232.402 233.798ZM245.7 219.018H244.79C244.342 219.018 243.979 218.654 243.979 218.207V213.391C243.979 212.943 244.342 212.58 244.79 212.58H245.819C246.712 212.58 247.572 212.966 248.177 213.642C248.791 214.326 249.085 215.242 248.984 216.155C248.806 217.786 247.393 219.018 245.698 219.018H245.7ZM244.826 218.17H245.7C246.941 218.17 248.014 217.245 248.142 216.063C248.217 215.388 247.999 214.713 247.546 214.208C247.1 213.712 246.471 213.427 245.817 213.427H244.824V218.17H244.826ZM248.085 210.025C248.041 210.025 247.995 210.017 247.951 210.002C247.352 209.801 246.716 209.7 246.06 209.7H244.792C244.344 209.7 243.981 209.336 243.981 208.889V205.023H220.632C220.399 205.023 220.209 204.834 220.209 204.601C220.209 204.367 220.399 204.178 220.632 204.178H244.015C244.463 204.178 244.826 204.542 244.826 204.989V208.854H246.06C246.807 208.854 247.534 208.971 248.221 209.201C248.443 209.275 248.561 209.514 248.489 209.736C248.429 209.914 248.265 210.025 248.087 210.025H248.085Z" fill="black"/>
<path d="M230.052 223.276C233.007 223.268 235.395 220.866 235.387 217.91C235.379 214.955 232.977 212.566 230.023 212.574C227.068 212.582 224.68 214.985 224.688 217.94C224.696 220.896 227.098 223.285 230.052 223.276Z" fill="white"/>
<path d="M230.019 223.721C226.834 223.721 224.245 221.129 224.245 217.945C224.245 214.76 226.834 212.169 230.019 212.169C233.203 212.169 235.793 214.76 235.793 217.945C235.793 221.129 233.203 223.721 230.019 223.721ZM230.019 213.018C227.303 213.018 225.092 215.229 225.092 217.947C225.092 220.664 227.301 222.875 230.019 222.875C232.737 222.875 234.946 220.664 234.946 217.947C234.946 215.229 232.737 213.018 230.019 213.018Z" fill="black"/>
<path d="M231.084 200.034C231.006 200.034 230.927 200.013 230.856 199.967C230.789 199.925 229.219 198.896 228.831 197.004C228.571 195.732 228.906 194.397 229.829 193.034C232.335 189.333 231.516 187.699 230.648 185.971L230.577 185.829C230.472 185.621 230.558 185.366 230.766 185.261C230.977 185.156 231.229 185.242 231.335 185.45L231.405 185.59C232.3 187.374 233.316 189.398 230.531 193.51C229.743 194.673 229.451 195.79 229.659 196.826C229.971 198.366 231.302 199.248 231.315 199.255C231.51 199.383 231.568 199.645 231.44 199.84C231.359 199.967 231.222 200.034 231.084 200.034Z" fill="black"/>
<path d="M279.07 60.615H262.335C260.498 48.8719 250.338 39.8885 238.078 39.8885C234.925 39.8885 231.914 40.4891 229.145 41.5716C222.904 30.3047 210.899 22.6735 197.107 22.6735C176.892 22.6735 160.505 39.0604 160.505 59.2763C160.505 59.7257 160.522 60.1694 160.539 60.615H158.839C144.73 60.615 133.293 72.0522 133.293 86.1612C133.293 100.27 144.73 111.707 158.839 111.707H279.07C293.179 111.707 304.617 100.27 304.617 86.1612C304.617 72.0522 293.179 60.615 279.07 60.615Z" fill="white"/>
<path d="M281.805 109.043H161.574C147.254 109.043 135.605 97.3938 135.605 83.0744C135.605 68.755 147.254 57.1055 161.574 57.1055H162.834C162.825 56.8015 162.815 56.4974 162.815 56.1894C162.815 35.7728 179.426 19.1621 199.842 19.1621C213.179 19.1621 225.494 26.3534 232.071 37.9569C234.875 36.9069 237.814 36.3752 240.813 36.3752C246.803 36.3752 252.597 38.5288 257.126 42.4381C261.515 46.2269 264.455 51.4233 265.43 57.1017H281.805C296.125 57.1017 307.774 68.7512 307.774 83.0706C307.774 97.39 296.125 109.039 281.805 109.039V109.043ZM161.574 57.9509C147.721 57.9509 136.45 69.2217 136.45 83.0744C136.45 96.9271 147.721 108.198 161.574 108.198H281.805C295.658 108.198 306.929 96.9271 306.929 83.0744C306.929 69.2217 295.658 57.9509 281.805 57.9509H265.07C264.862 57.9509 264.684 57.7998 264.652 57.5933C262.804 45.7908 252.778 37.2244 240.813 37.2244C237.795 37.2244 234.842 37.781 232.035 38.8788C231.836 38.9553 231.612 38.875 231.511 38.6894C225.128 27.1662 212.995 20.0094 199.844 20.0094C179.894 20.0094 163.664 36.2394 163.664 56.1894C163.664 56.5987 163.679 57.0061 163.695 57.4116L163.699 57.5129C163.702 57.6277 163.66 57.7386 163.58 57.8228C163.5 57.905 163.391 57.9528 163.276 57.9528H161.576L161.574 57.9509Z" fill="black"/>
<path d="M195.279 319.453C195.279 319.453 205.087 339.25 216.107 348.765C217.966 350.369 220.859 349.484 221.554 347.129C221.953 345.768 222.347 343.953 222.671 341.535C223.883 332.496 215.753 308.96 215.753 308.96L212.132 307.793C210.862 307.384 209.516 308.161 209.235 309.467L208.856 311.23L204.503 307.398C203.512 306.525 201.99 306.656 201.172 307.692C199.508 309.8 196.926 313.734 195.277 319.453H195.279Z" fill="white"/>
<path d="M218.287 350C217.396 350 216.526 349.684 215.831 349.084C204.872 339.622 195 319.839 194.9 319.64C194.853 319.544 194.843 319.437 194.874 319.334C196.503 313.678 199.018 309.739 200.843 307.428C201.309 306.837 201.981 306.474 202.732 306.405C203.486 306.336 204.218 306.575 204.786 307.076L208.598 310.431L208.826 309.373C208.984 308.635 209.451 307.994 210.105 307.616C210.759 307.237 211.549 307.155 212.266 307.386L215.887 308.553C216.013 308.593 216.115 308.692 216.157 308.817C216.489 309.781 224.306 332.552 223.093 341.587C222.795 343.801 222.416 345.704 221.963 347.244C221.594 348.501 220.622 349.47 219.366 349.841C219.01 349.946 218.649 349.996 218.289 349.996L218.287 350ZM195.732 319.41C196.656 321.237 206.051 339.521 216.384 348.443C217.149 349.105 218.15 349.319 219.125 349.032C220.104 348.743 220.86 347.988 221.148 347.009C221.59 345.509 221.961 343.648 222.252 341.478C223.38 333.078 216.204 311.601 215.422 309.297L212.004 308.195C211.513 308.036 210.974 308.094 210.526 308.352C210.078 308.61 209.759 309.048 209.652 309.553L209.273 311.316C209.243 311.464 209.136 311.582 208.992 311.63C208.849 311.676 208.692 311.645 208.579 311.546L204.226 307.713C203.832 307.367 203.327 307.202 202.807 307.248C202.29 307.294 201.828 307.545 201.506 307.952C199.747 310.182 197.324 313.973 195.732 319.41Z" fill="black"/>
<path d="M219.173 346.812C219.064 346.812 218.955 346.77 218.872 346.687C207.667 335.434 198.286 317.819 198.192 317.643C198.083 317.437 198.161 317.18 198.368 317.071C198.574 316.962 198.831 317.041 198.94 317.247C199.033 317.423 208.357 334.927 219.471 346.091C219.636 346.257 219.636 346.525 219.471 346.689C219.389 346.772 219.28 346.814 219.173 346.814V346.812Z" fill="black"/>
<path d="M214.395 331.354C214.217 331.354 214.051 331.242 213.993 331.064C213.921 330.842 214.041 330.603 214.263 330.528L220.123 328.598C220.345 328.524 220.584 328.646 220.659 328.868C220.731 329.09 220.611 329.329 220.389 329.404L214.529 331.333C214.485 331.349 214.441 331.354 214.397 331.354H214.395Z" fill="black"/>
<path d="M210.541 325.095C210.364 325.095 210.197 324.982 210.14 324.804C210.067 324.582 210.188 324.343 210.409 324.268L217.773 321.843C217.995 321.771 218.234 321.891 218.308 322.113C218.381 322.335 218.261 322.574 218.039 322.648L210.675 325.074C210.631 325.089 210.587 325.095 210.543 325.095H210.541Z" fill="black"/>
<path d="M115.188 170.794C115.942 170.001 169.677 146.786 191.641 141.849C213.605 136.911 221.789 136.865 229.263 149.417C236.738 161.97 193.261 230.463 193.261 230.463L100.771 206.355L115.19 170.794H115.188Z" fill="black"/>
<path d="M167.239 197.247C167.181 197.247 167.122 197.235 167.067 197.211C166.852 197.115 166.757 196.864 166.852 196.65C177.184 173.588 194.242 157.112 194.413 156.947C194.581 156.785 194.849 156.79 195.011 156.961C195.174 157.129 195.168 157.399 194.998 157.559C194.828 157.722 177.886 174.091 167.625 196.996C167.554 197.153 167.399 197.247 167.239 197.247Z" fill="white"/>
<path d="M71.2241 201.474C71.2241 201.474 73.6588 226.439 79.058 231.629C84.4572 236.822 149.242 231.629 149.242 231.629C149.242 231.629 154.39 240.064 157.754 262.607C161.119 285.151 164.871 315.499 170.444 322.903L218.955 312.43C218.955 312.43 202.864 215.862 191.689 202.728C180.514 189.595 99.205 187.533 99.205 187.533L71.2241 201.472V201.474Z" fill="black"/>
<path d="M197.301 215C197.125 215 196.962 214.891 196.901 214.715C194.868 208.87 193.005 204.93 191.368 203.004C187.583 198.555 170.813 194.503 142.875 191.282C142.643 191.255 142.475 191.045 142.502 190.813C142.528 190.58 142.743 190.415 142.97 190.44C171.529 193.732 188.03 197.775 192.012 202.455C193.718 204.461 195.633 208.491 197.7 214.435C197.777 214.657 197.66 214.898 197.44 214.975C197.394 214.99 197.347 214.998 197.301 214.998V215Z" fill="white"/>
<path d="M161.008 119.742C159.286 118.484 156.863 118.922 155.693 120.704C149.647 129.919 132.923 155.442 132.726 156.073L141.107 157.255L161.947 124.766C163.01 123.108 162.599 120.907 161.008 119.744V119.742Z" fill="white"/>
<path d="M141.107 157.678C141.088 157.678 141.067 157.678 141.048 157.674L132.667 156.492C132.545 156.475 132.434 156.404 132.369 156.299C132.302 156.194 132.285 156.066 132.323 155.947C132.516 155.333 144.946 136.316 155.339 120.473C155.968 119.513 156.936 118.872 158.066 118.667C159.196 118.463 160.331 118.723 161.258 119.402C163.027 120.695 163.486 123.15 162.302 124.994L141.463 157.483C141.385 157.605 141.249 157.678 141.107 157.678ZM133.403 155.74L140.897 156.796L161.589 124.535C162.53 123.068 162.165 121.112 160.757 120.083C160.019 119.543 159.116 119.335 158.215 119.497C157.316 119.66 156.547 120.171 156.044 120.934C143.263 140.417 135.016 153.095 133.402 155.737L133.403 155.74Z" fill="black"/>
<path d="M47.0799 196.669C47.0799 196.669 38.3758 184.504 41.9389 157.253C45.504 130.003 54.2234 115.858 63.3482 112.625C72.4712 109.393 110 115.295 112.93 161.08L47.0799 196.669Z" fill="white"/>
<path d="M47.0797 197.094C46.9478 197.094 46.8177 197.031 46.7355 196.916C46.6475 196.794 37.974 184.301 41.5199 157.198C44.7713 132.348 52.6759 115.957 63.2065 112.226C68.0836 110.499 80.4904 111.369 91.633 118.721C100.687 124.696 111.805 136.888 113.352 161.054C113.364 161.218 113.276 161.375 113.13 161.453L47.2806 197.042C47.2175 197.077 47.1467 197.094 47.0797 197.094ZM68.8123 112.304C66.6071 112.304 64.7748 112.57 63.4896 113.025C58.8229 114.678 54.4833 119.208 50.9355 126.126C46.9287 133.943 44.0426 144.433 42.3595 157.309C39.1636 181.738 45.9437 194.051 47.2213 196.113L112.49 160.839C110.9 137.202 100.027 125.277 91.1664 119.43C83.2369 114.198 74.6953 112.306 68.8123 112.306V112.304Z" fill="black"/>
<path d="M73.3031 177.412C73.0832 177.412 72.8977 177.242 72.8804 177.018L71.0731 151.462C71.0558 151.229 71.2318 151.026 71.4651 151.009C71.6985 150.992 71.9012 151.167 71.9165 151.401L73.7239 176.957C73.7411 177.19 73.5651 177.393 73.3318 177.41C73.3222 177.41 73.3108 177.41 73.3012 177.41L73.3031 177.412Z" fill="black"/>
<path d="M43.9106 189.662C43.9106 189.662 47.0721 212.548 79.0579 204.888C111.042 197.228 127.717 167.495 127.717 167.495C127.717 167.495 146.34 163.515 145.707 151.431C145.707 151.431 139.474 153.103 134.172 151.431C128.871 149.76 123.135 151.47 120.928 153.539C105.805 167.723 57.4975 171.976 43.9106 189.662Z" fill="white"/>
<path d="M66.9742 206.884C61.0223 206.884 56.0209 205.517 52.0255 202.788C44.6813 197.771 43.5376 190.044 43.4917 189.717C43.4764 189.604 43.507 189.492 43.5758 189.402C51.052 179.67 68.7567 174.017 85.878 168.549C100.245 163.961 113.817 159.627 120.639 153.227C123.137 150.884 129.07 149.377 134.3 151.026C139.424 152.64 145.537 151.037 145.598 151.02C145.722 150.988 145.852 151.013 145.958 151.087C146.061 151.162 146.124 151.28 146.132 151.408C146.747 163.198 130.066 167.392 127.993 167.866C127.321 169.016 123.131 175.964 115.687 183.612C108.198 191.308 95.7794 201.317 79.1591 205.297C74.7411 206.355 70.675 206.882 66.9761 206.882L66.9742 206.884ZM44.36 189.773C44.5723 190.932 46.0679 197.7 52.5152 202.097C58.7884 206.374 67.6856 207.173 78.9583 204.475C110.399 196.945 127.18 167.583 127.346 167.287C127.406 167.181 127.509 167.105 127.627 167.08C127.807 167.042 145.355 163.152 145.298 151.965C143.674 152.33 138.573 153.262 134.044 151.835C128.827 150.19 123.242 151.948 121.217 153.847C114.255 160.376 100.595 164.739 86.1343 169.356C69.2233 174.757 51.7406 180.34 44.358 189.773H44.36Z" fill="black"/>
<path d="M134.318 157.02C133.801 157.02 133.268 157.009 132.709 156.987C132.476 156.978 132.294 156.781 132.304 156.548C132.314 156.314 132.495 156.133 132.744 156.142C142.077 156.519 145.262 153.428 145.292 153.398C145.457 153.233 145.724 153.231 145.891 153.394C146.057 153.558 146.061 153.824 145.898 153.99C145.77 154.121 142.838 157.022 134.318 157.022V157.02Z" fill="black"/>
<path d="M133.348 161.447C133.141 161.447 132.933 161.447 132.719 161.442C132.485 161.438 132.298 161.245 132.304 161.01C132.308 160.776 132.506 160.591 132.736 160.594C140.872 160.744 143.498 157.86 143.523 157.831C143.678 157.655 143.944 157.636 144.121 157.791C144.297 157.944 144.317 158.211 144.162 158.389C144.051 158.517 141.394 161.449 133.35 161.449L133.348 161.447Z" fill="black"/>
<path d="M77.8932 91.4189C77.6522 91.8588 67.4219 109.345 67.4219 109.345L60.3665 114.087C62.9695 116.064 67.5673 119.04 73.9973 120.746C80.5574 122.485 86.1268 122.131 89.3859 121.68C89.1028 120.788 88.6266 119.627 87.8003 118.415C86.4979 116.502 84.9449 115.364 83.9523 114.756C86.058 111.139 88.1637 107.525 90.2695 103.908L77.8932 91.4189Z" fill="white"/>
<path d="M83.9865 122.477C80.5879 122.477 77.2103 122.035 73.8881 121.156C68.8753 119.826 64.2392 117.562 60.1081 114.425C59.9991 114.343 59.9379 114.213 59.9417 114.075C59.9455 113.939 60.0163 113.811 60.1291 113.737L67.1043 109.049C67.8731 107.735 77.2944 91.6294 77.522 91.2162C77.587 91.0996 77.7018 91.0193 77.8338 91.0001C77.9657 90.981 78.0996 91.0269 78.1933 91.1206L90.5696 103.61C90.7054 103.745 90.7302 103.956 90.6346 104.12L84.5239 114.615C85.9679 115.563 87.1881 116.761 88.1502 118.174C88.8559 119.211 89.4067 120.345 89.7892 121.548C89.8275 121.666 89.8103 121.796 89.7433 121.901C89.6764 122.007 89.5674 122.077 89.4431 122.095C87.6223 122.347 85.8015 122.473 83.9846 122.473L83.9865 122.477ZM61.0969 114.106C65.0177 116.992 69.3917 119.088 74.1062 120.337C78.9278 121.615 83.8737 121.947 88.8196 121.326C88.4753 120.379 88.0163 119.482 87.4521 118.652C86.4805 117.223 85.2278 116.034 83.7321 115.116C83.5351 114.995 83.472 114.741 83.5887 114.542L89.7414 103.975L77.9849 92.1113C76.3401 94.9419 68.1696 108.909 67.789 109.56C67.7565 109.615 67.7125 109.661 67.6589 109.697L61.0988 114.106H61.0969Z" fill="black"/>
<path d="M108.873 80.2476C104.157 76.3746 98.5967 80.4178 93.0904 75.6689C90.5677 73.4924 90.3363 71.4383 87.3068 70.2468C85.3005 69.4588 81.7317 68.9156 79.3563 70.7287C76.3306 73.0372 78.5568 76.6347 76.103 84.7039C74.3797 90.3708 71.9909 92.8361 73.3317 94.8233C74.6877 96.8334 77.8396 95.3664 79.4863 97.4511C81.6169 100.148 77.7306 104.369 78.9412 108.179C79.7732 110.797 83.7532 114.536 93.7579 115.787C94.3106 114.182 95.6379 111.006 96.5024 107.899C99.2087 98.1779 97.7341 94.458 100.167 93.2014C103.894 91.2774 108.391 97.2197 111.16 95.4257C114.037 93.5629 113.714 84.2219 108.871 80.2457L108.873 80.2476Z" fill="black"/>
<path d="M89.3266 85.006L90.2695 87.8615C90.2695 87.8615 86.6069 96.8448 85.9509 100.238C85.2968 103.631 95.6514 106.454 95.6514 106.454L97.2771 105.249L100.169 105.972C100.169 105.972 100.081 96.0836 102.73 89.491C102.73 89.491 97.8413 83.5601 89.3247 85.006H89.3266Z" fill="white"/>
<path d="M89.6878 85.224C90.0627 86.0865 90.3955 86.8764 90.6709 87.7294C90.7034 87.8289 90.6977 87.9322 90.6613 88.0221C89.8734 89.9691 89.116 91.9333 88.3892 93.9051C87.6796 95.877 86.9586 97.868 86.4671 99.8685L86.3829 100.241C86.3504 100.372 86.3619 100.446 86.3447 100.549C86.3619 100.744 86.3887 100.943 86.49 101.138C86.6698 101.531 86.993 101.898 87.3602 102.223C88.1042 102.873 89.007 103.391 89.9288 103.852C91.784 104.761 93.7712 105.47 95.7622 106.046L95.3988 106.115L97.0225 104.91L97.0493 104.893C97.1488 104.824 97.2712 104.809 97.3783 104.839L100.238 105.687L99.8723 105.975C99.8627 104.564 99.9143 103.166 100 101.764C100.088 100.364 100.22 98.9639 100.396 97.5696C100.584 96.1753 100.819 94.7868 101.119 93.4079C101.439 92.0327 101.827 90.6691 102.334 89.336L102.401 89.7625C101.638 88.9076 100.683 88.1273 99.6829 87.4885C98.6788 86.842 97.5963 86.3141 96.4621 85.945C95.3318 85.574 94.1575 85.312 92.9641 85.2546C92.3693 85.1857 91.7725 85.2259 91.1758 85.2355C90.8469 85.2316 90.6613 85.2852 90.4242 85.2756C90.1966 85.2756 89.9556 85.245 89.6859 85.224H89.6878ZM88.9611 84.7879C89.2996 84.6923 89.6687 84.5909 90.0512 84.5163C90.4242 84.4456 90.8469 84.3805 91.1337 84.3901C91.7649 84.3786 92.396 84.3385 93.0253 84.4092C94.2876 84.4723 95.5365 84.7478 96.7337 85.1417C97.9367 85.5338 99.0824 86.0904 100.142 86.7751C101.209 87.4636 102.181 88.2439 103.055 89.2232C103.156 89.336 103.179 89.4909 103.131 89.6229L103.122 89.6497C102.615 90.9215 102.215 92.2431 101.882 93.5838C101.567 94.9303 101.314 96.2939 101.108 97.6652C100.913 99.0404 100.762 100.421 100.653 101.808C100.545 103.193 100.473 104.587 100.461 105.97C100.461 106.134 100.326 106.268 100.161 106.266C100.138 106.266 100.115 106.262 100.094 106.258L97.1717 105.66L97.5275 105.589L95.9018 106.794L95.896 106.798C95.7889 106.876 95.655 106.895 95.5365 106.863C93.4805 106.268 91.4818 105.556 89.5501 104.612C88.59 104.13 87.6433 103.596 86.7979 102.858C86.381 102.485 85.9794 102.056 85.7154 101.488C85.5758 101.211 85.5108 100.882 85.4955 100.553C85.5108 100.396 85.5184 100.203 85.5509 100.077L85.6408 99.6792C86.1553 97.5849 86.8783 95.6054 87.5936 93.6144C88.3242 91.6311 89.0835 89.663 89.8753 87.7027L89.8657 87.9953C89.5119 86.9434 89.2154 85.8284 88.9611 84.7879Z" fill="black"/>
<path d="M85.8265 92.9393C85.8265 92.9393 86.7331 86.3735 83.6577 86.5934C80.5822 86.8134 79.7675 94.0658 85.8265 92.9393Z" fill="white"/>
<path d="M84.6121 93.4825C83.0189 93.4825 82.1219 92.8245 81.6285 92.201C80.6531 90.9693 80.7391 89.2366 81.2555 88.0622C81.747 86.9472 82.6345 86.2396 83.629 86.1688C84.3061 86.121 84.8722 86.3371 85.3159 86.8133C86.8536 88.4562 86.2722 92.8111 86.2473 92.9967C86.2225 93.1784 86.0848 93.3218 85.905 93.3543C85.4307 93.4423 85.0022 93.4825 84.614 93.4825H84.6121ZM83.805 87.0103C83.7667 87.0103 83.7285 87.0103 83.6883 87.0141C83.0017 87.0639 82.3973 87.5688 82.0301 88.4027C81.6151 89.3437 81.5367 90.7188 82.2921 91.6732C82.9214 92.4669 84.0058 92.7748 85.444 92.5702C85.5856 91.2352 85.6621 88.4199 84.6962 87.389C84.4572 87.1327 84.1645 87.0065 83.805 87.0065V87.0103Z" fill="black"/>
<path d="M108.795 278.522C106.739 274.291 106.544 270.03 108.795 265.723L107.179 263.785L62.9867 265.239L64.5091 279.277L107.286 279.771L108.793 278.522H108.795Z" fill="white"/>
<path d="M107.287 280.193H107.282L64.5051 279.7C64.2909 279.698 64.113 279.535 64.0881 279.321L62.5657 265.283C62.5524 265.166 62.5906 265.048 62.6671 264.96C62.7436 264.87 62.8545 264.818 62.9731 264.814L107.165 263.361C107.293 263.357 107.421 263.412 107.503 263.514L109.12 265.451C109.229 265.583 109.25 265.767 109.169 265.918C107.067 269.938 107.069 274 109.175 278.334C109.261 278.51 109.215 278.721 109.064 278.845L107.557 280.094C107.48 280.157 107.385 280.191 107.287 280.191V280.193ZM64.8914 278.858L107.136 279.346L108.27 278.407C106.256 274.073 106.262 269.827 108.29 265.78L106.985 264.216L63.457 265.648L64.8914 278.858Z" fill="black"/>
<path d="M27.5926 262.24H109.613C110.571 262.24 111.35 263.016 111.35 263.977C111.35 264.937 110.573 265.713 109.613 265.713H71.9049C69.1432 265.713 66.9054 267.951 66.9054 270.713V273.524C66.9054 276.286 69.1432 278.524 71.9049 278.524H109.613C110.571 278.524 111.35 279.3 111.35 280.26C111.35 281.22 110.573 281.997 109.613 281.997H27.5926C22.5013 281.997 18.374 277.869 18.374 272.778V271.462C18.374 266.371 22.5013 262.244 27.5926 262.244V262.24Z" fill="white"/>
<path d="M109.615 282.417H27.5928C22.2759 282.417 17.9515 278.091 17.9515 272.776V271.46C17.9515 266.143 22.2778 261.819 27.5928 261.819H109.613C110.805 261.819 111.773 262.789 111.773 263.978C111.773 265.168 110.803 266.138 109.613 266.138H71.9051C69.3824 266.138 67.3283 268.19 67.3283 270.714V273.526C67.3283 276.049 69.3805 278.103 71.9051 278.103H109.613C110.805 278.103 111.773 279.072 111.773 280.262C111.773 281.452 110.803 282.421 109.613 282.421L109.615 282.417ZM27.5947 262.664C22.7444 262.664 18.8007 266.61 18.8007 271.46V272.776C18.8007 277.627 22.7463 281.572 27.5947 281.572H109.615C110.338 281.572 110.927 280.983 110.927 280.26C110.927 279.537 110.338 278.948 109.615 278.948H71.907C68.9157 278.948 66.483 276.515 66.483 273.524V270.713C66.483 267.721 68.9157 265.289 71.907 265.289H109.615C110.338 265.289 110.927 264.699 110.927 263.977C110.927 263.254 110.338 262.664 109.615 262.664H27.5928H27.5947Z" fill="black"/>
<path d="M107.177 271.95H82.2883C82.0549 271.95 81.8656 271.761 81.8656 271.527C81.8656 271.294 82.0549 271.105 82.2883 271.105H107.177C107.41 271.105 107.599 271.294 107.599 271.527C107.599 271.761 107.41 271.95 107.177 271.95Z" fill="black"/>
<path d="M107.333 275.697H87.106C86.8727 275.697 86.6833 275.507 86.6833 275.274C86.6833 275.041 86.8727 274.851 87.106 274.851H107.333C107.567 274.851 107.756 275.041 107.756 275.274C107.756 275.507 107.567 275.697 107.333 275.697Z" fill="black"/>
<path d="M111.973 302.406H37.886V284.255H111.971C109.783 290.387 109.724 296.438 111.971 302.406H111.973Z" fill="white"/>
<path d="M111.973 302.828H37.8859C37.6526 302.828 37.4633 302.639 37.4633 302.406V284.255C37.4633 284.022 37.6526 283.833 37.8859 283.833H111.973C112.111 283.833 112.239 283.9 112.319 284.013C112.398 284.125 112.419 284.269 112.373 284.399C110.202 290.487 110.2 296.496 112.371 302.258C112.421 302.389 112.402 302.534 112.323 302.649C112.245 302.763 112.115 302.83 111.975 302.83L111.973 302.828ZM38.3105 301.981H111.369C109.401 296.381 109.403 290.565 111.378 284.678H38.3105V301.981Z" fill="black"/>
<path d="M46.8064 285.151H112.484C113.274 285.151 113.915 284.51 113.915 283.72C113.915 282.93 113.274 282.289 112.484 282.289H27.2561C23.7848 282.289 20.9714 285.103 20.9714 288.574V298.454C20.9714 301.926 23.7848 304.739 27.2561 304.739H112.482C113.272 304.739 113.913 304.098 113.913 303.309C113.913 302.519 113.272 301.878 112.482 301.878H46.8064C44.3545 301.878 42.3673 299.891 42.3673 297.439V289.59C42.3673 287.138 44.3545 285.151 46.8064 285.151Z" fill="white"/>
<path d="M112.482 305.162H27.2561C23.5572 305.162 20.5487 302.153 20.5487 298.454V288.574C20.5487 284.875 23.5572 281.867 27.2561 281.867H112.482C113.503 281.867 114.335 282.699 114.335 283.72C114.335 284.741 113.503 285.573 112.482 285.573H46.8064C44.5916 285.573 42.79 287.375 42.79 289.59V297.439C42.79 299.654 44.5916 301.455 46.8064 301.455H112.484C113.505 301.455 114.337 302.287 114.337 303.309C114.337 304.33 113.505 305.162 112.484 305.162H112.482ZM27.2561 282.712C24.0238 282.712 21.3941 285.342 21.3941 288.574V298.454C21.3941 301.687 24.0238 304.316 27.2561 304.316H112.482C113.037 304.316 113.488 303.865 113.488 303.31C113.488 302.756 113.037 302.304 112.482 302.304H46.8064C44.1249 302.304 41.9427 300.122 41.9427 297.441V289.592C41.9427 286.91 44.1249 284.728 46.8064 284.728H112.484C113.039 284.728 113.49 284.277 113.49 283.722C113.49 283.167 113.039 282.716 112.484 282.716H27.2561V282.712Z" fill="black"/>
<path d="M110.663 288.987H99.7232C99.4899 288.987 99.3005 288.798 99.3005 288.565C99.3005 288.331 99.4899 288.142 99.7232 288.142H110.663C110.896 288.142 111.086 288.331 111.086 288.565C111.086 288.798 110.896 288.987 110.663 288.987Z" fill="black"/>
<path d="M110.432 291.41H76.7399C76.5066 291.41 76.3173 291.221 76.3173 290.988C76.3173 290.754 76.5066 290.565 76.7399 290.565H110.432C110.665 290.565 110.854 290.754 110.854 290.988C110.854 291.221 110.665 291.41 110.432 291.41Z" fill="black"/>
<path d="M110.432 296.467H81.4432C81.2099 296.467 81.0205 296.278 81.0205 296.044C81.0205 295.811 81.2099 295.622 81.4432 295.622H110.432C110.665 295.622 110.855 295.811 110.855 296.044C110.855 296.278 110.665 296.467 110.432 296.467Z" fill="black"/>
<path d="M21.2639 323.264C23.5858 318.485 23.8076 313.667 21.2639 308.801L23.0904 306.612L73.0257 308.254L71.3044 324.117L22.968 324.674L21.2639 323.264Z" fill="white"/>
<path d="M22.966 325.098C22.8666 325.098 22.7709 325.064 22.6964 325.001L20.9923 323.591C20.8412 323.467 20.7953 323.255 20.8813 323.081C23.2701 318.165 23.2701 313.56 20.8871 309C20.8087 308.849 20.8278 308.664 20.9368 308.534L22.7633 306.344C22.8475 306.244 22.9737 306.189 23.1018 306.191L73.0371 307.834C73.1557 307.837 73.2666 307.891 73.3431 307.979C73.4196 308.069 73.4578 308.186 73.4445 308.302L71.7231 324.165C71.7002 324.377 71.5204 324.54 71.3062 324.544L22.9699 325.1H22.9641L22.966 325.098ZM21.7879 323.15L23.1171 324.251L70.9237 323.7L72.5551 308.666L23.2816 307.046L21.7688 308.861C24.0734 313.439 24.0811 318.244 21.7879 323.151V323.15Z" fill="black"/>
<path d="M113.019 304.865H20.3363C19.2538 304.865 18.374 305.743 18.374 306.828C18.374 307.912 19.2519 308.79 20.3363 308.79H62.9464C66.0658 308.79 68.5962 311.32 68.5962 314.44V317.616C68.5962 320.736 66.0658 323.266 62.9464 323.266H20.3363C19.2538 323.266 18.374 324.144 18.374 325.228C18.374 326.313 19.2519 327.191 20.3363 327.191H113.019C118.772 327.191 123.437 322.526 123.437 316.773V315.285C123.437 309.532 118.772 304.867 113.019 304.867V304.865Z" fill="white"/>
<path d="M113.02 327.611H20.3365C19.0207 327.611 17.9515 326.542 17.9515 325.227C17.9515 323.911 19.0207 322.842 20.3365 322.842H62.9466C65.8289 322.842 68.1718 320.497 68.1718 317.616V314.44C68.1718 311.557 65.827 309.214 62.9466 309.214H20.3365C19.0207 309.214 17.9515 308.145 17.9515 306.83C17.9515 305.514 19.0207 304.445 20.3365 304.445H113.02C118.996 304.445 123.86 309.308 123.86 315.285V316.773C123.86 322.75 118.996 327.613 113.02 327.613V327.611ZM20.3365 323.689C19.4892 323.689 18.7988 324.379 18.7988 325.227C18.7988 326.074 19.4892 326.764 20.3365 326.764H113.02C118.53 326.764 123.013 322.281 123.013 316.771V315.283C123.013 309.773 118.53 305.29 113.02 305.29H20.3365C19.4892 305.29 18.7988 305.98 18.7988 306.828C18.7988 307.675 19.4892 308.365 20.3365 308.365H62.9466C66.2955 308.365 69.019 311.089 69.019 314.438V317.614C69.019 320.963 66.2955 323.687 62.9466 323.687H20.3365V323.689Z" fill="black"/>
<path d="M45.9495 315.782H23.0905C22.8572 315.782 22.6678 315.593 22.6678 315.36C22.6678 315.126 22.8572 314.937 23.0905 314.937H45.9495C46.1829 314.937 46.3722 315.126 46.3722 315.36C46.3722 315.593 46.1829 315.782 45.9495 315.782Z" fill="black"/>
<path d="M50.8552 320.019H22.9145C22.6812 320.019 22.4918 319.829 22.4918 319.596C22.4918 319.363 22.6812 319.173 22.9145 319.173H50.8552C51.0885 319.173 51.2779 319.363 51.2779 319.596C51.2779 319.829 51.0885 320.019 50.8552 320.019Z" fill="black"/>
<path d="M255.334 239.224C259.681 242.013 288.274 258.828 322.53 242.563C322.654 242.504 322.754 242.409 322.813 242.284C324.134 239.555 338.714 207.472 317.737 161.645C317.574 161.287 317.121 161.17 316.815 161.409C312.971 164.418 291.28 180.763 274.075 180.342C273.669 180.332 273.367 180.703 273.474 181.097C274.714 185.634 279.505 209.214 255.198 238.325C254.964 238.604 255.026 239.025 255.334 239.224Z" fill="white"/>
<path d="M292.26 249.999C287.415 249.999 282.534 249.485 277.629 248.452C265.627 245.928 257.353 241.022 255.104 239.58C254.858 239.421 254.689 239.163 254.645 238.872C254.599 238.579 254.683 238.281 254.873 238.054C279.061 209.084 274.272 185.619 273.065 181.208C272.979 180.893 273.044 180.567 273.245 180.311C273.448 180.053 273.758 179.91 274.085 179.917C291.087 180.34 312.441 164.295 316.553 161.075C316.8 160.881 317.115 160.814 317.421 160.889C317.733 160.966 317.988 161.176 318.121 161.467C326.929 180.707 330.607 199.781 329.058 218.161C327.874 232.211 323.964 240.875 323.194 242.468C323.092 242.678 322.926 242.843 322.712 242.946C312.818 247.643 302.624 249.999 292.262 249.999H292.26ZM274.058 180.764C273.977 180.764 273.932 180.808 273.911 180.833C273.888 180.864 273.863 180.914 273.882 180.984C275.108 185.466 279.981 209.304 255.521 238.597C255.473 238.652 255.475 238.713 255.479 238.744C255.483 238.775 255.5 238.83 255.559 238.866C257.778 240.289 265.939 245.128 277.801 247.622C293.009 250.822 307.996 248.991 322.344 242.179C322.383 242.16 322.411 242.133 322.429 242.099C323.188 240.528 327.04 231.991 328.212 218.088C329.75 199.856 326.095 180.923 317.351 161.819C317.316 161.742 317.249 161.717 317.223 161.711C317.192 161.704 317.133 161.698 317.077 161.742C312.979 164.951 291.891 180.77 274.735 180.772C274.509 180.772 274.289 180.77 274.065 180.764C274.065 180.764 274.062 180.764 274.06 180.764H274.058Z" fill="black"/>
<path d="M280.442 188.258C280.245 188.258 280.069 188.12 280.029 187.921C279.981 187.692 280.126 187.468 280.356 187.42C280.539 187.382 298.913 183.44 312.294 173.512C312.481 173.372 312.747 173.413 312.887 173.6C313.026 173.787 312.986 174.053 312.799 174.193C299.267 184.236 280.717 188.212 280.53 188.25C280.501 188.256 280.471 188.26 280.442 188.26V188.258Z" fill="black"/>
<path d="M293.66 193.035C293.467 193.035 293.293 192.902 293.247 192.706C293.195 192.479 293.338 192.251 293.566 192.2C302.314 190.212 310.003 186.973 316.417 182.57C316.611 182.438 316.874 182.486 317.006 182.679C317.138 182.872 317.089 183.136 316.897 183.268C310.395 187.732 302.607 191.014 293.753 193.026C293.721 193.034 293.69 193.037 293.66 193.037V193.035Z" fill="black"/>
<path d="M280.281 194.872C280.05 194.872 279.861 194.686 279.859 194.453C279.855 194.219 280.042 194.026 280.276 194.024C280.304 194.024 283.112 193.978 287.404 193.351C287.637 193.319 287.849 193.477 287.884 193.709C287.918 193.94 287.758 194.156 287.526 194.189C283.173 194.826 280.316 194.872 280.287 194.872H280.281Z" fill="black"/>
<path d="M284.349 202.22C281.526 202.22 279.882 202.034 279.826 202.026C279.595 201.998 279.428 201.787 279.457 201.556C279.486 201.325 279.694 201.158 279.927 201.187C280.105 201.208 298.024 203.22 318.097 193.559C318.307 193.458 318.561 193.546 318.663 193.758C318.764 193.969 318.676 194.223 318.466 194.325C304.204 201.189 291.007 202.222 284.349 202.222V202.22Z" fill="black"/>
<path d="M289.821 209.906C282.567 209.906 278.026 208.921 277.935 208.9C277.707 208.849 277.564 208.623 277.615 208.393C277.667 208.166 277.892 208.022 278.122 208.074C278.309 208.116 297.047 212.169 319.502 203.539C319.72 203.455 319.965 203.564 320.049 203.782C320.133 204 320.024 204.245 319.806 204.329C308.149 208.808 297.477 209.904 289.823 209.904L289.821 209.906Z" fill="black"/>
<path d="M306.457 218.746C306.248 218.746 306.068 218.593 306.038 218.381C306.005 218.149 306.166 217.935 306.397 217.903C310.913 217.268 315.214 216.153 319.183 214.594C319.401 214.508 319.646 214.615 319.732 214.833C319.818 215.051 319.711 215.296 319.493 215.382C315.463 216.966 311.096 218.098 306.516 218.742C306.497 218.744 306.476 218.746 306.457 218.746Z" fill="black"/>
<path d="M296.963 219.395C284.948 219.395 275.758 216.44 275.663 216.407C275.441 216.335 275.318 216.095 275.391 215.874C275.464 215.652 275.705 215.531 275.925 215.602C276.024 215.635 286.126 218.878 298.961 218.519C299.206 218.513 299.39 218.697 299.398 218.93C299.403 219.163 299.22 219.358 298.986 219.366C298.304 219.385 297.628 219.395 296.963 219.395Z" fill="black"/>
<path d="M13.0437 65.7771L29.8858 82.0511C31.4388 83.5506 33.9232 83.4913 35.3901 81.9077C40.4738 76.4263 52.5497 64.6104 67.682 57.9642C69.8661 57.006 70.677 54.3265 69.3765 52.326L54.3934 29.2967C53.2688 27.5678 50.9852 27.0227 49.2085 28.0689C43.5415 31.4101 30.7369 40.273 12.8352 60.4391C11.4639 61.9844 11.5576 64.3407 13.0418 65.7752L13.0437 65.7771Z" fill="white"/>
<path d="M32.5672 83.5601C31.4502 83.5601 30.3983 83.1355 29.5912 82.3552L12.7491 66.0811C11.0929 64.4803 10.9915 61.8792 12.5196 60.1598C30.2645 40.1716 42.9888 31.2475 48.9942 27.7054C50.968 26.5426 53.4945 27.1393 54.7492 29.0672L69.7322 52.0964C70.4169 53.1503 70.6043 54.4451 70.2448 55.6481C69.8833 56.8587 69.0112 57.8437 67.8522 58.3524C52.5631 65.0675 40.2748 77.2639 35.7 82.1964C34.9139 83.0437 33.8448 83.5276 32.6877 83.5601C32.6475 83.5601 32.6073 83.5601 32.5672 83.5601ZM13.3382 65.471L30.1803 81.7451C30.8516 82.3934 31.7314 82.7339 32.6647 82.7109C33.5923 82.686 34.4492 82.2978 35.0784 81.6188C39.6877 76.6481 52.0754 64.3541 67.5117 57.5759C68.4431 57.1667 69.1431 56.3768 69.4319 55.4052C69.7207 54.4412 69.5696 53.4027 69.0207 52.5574L54.0377 29.5281C53.0317 27.9828 51.0063 27.5027 49.4246 28.4341C43.4631 31.9494 30.821 40.818 13.1546 60.7202C11.9287 62.0992 12.0109 64.1877 13.3401 65.471H13.3382Z" fill="black"/>
<path d="M1.75195 87.0067L18.594 103.281C20.147 104.78 22.6315 104.721 24.0984 103.137C29.182 97.6559 41.258 85.84 56.3902 79.1938C58.5744 78.2356 59.3853 75.5561 58.0847 73.5556L43.1017 50.5263C41.9771 48.7974 39.6935 48.2523 37.9167 49.2985C32.2498 52.6397 19.4451 61.5026 1.54348 81.6687C0.172166 83.2141 0.265882 85.5703 1.75003 87.0048L1.75195 87.0067Z" fill="white"/>
<path d="M21.2756 104.791C20.1587 104.791 19.1067 104.367 18.2996 103.587L1.45947 87.3106C-0.19681 85.7098 -0.298176 83.1087 1.22997 81.3893C18.9748 61.3991 31.6991 52.4751 37.7046 48.9349C39.6783 47.7721 42.2048 48.3688 43.4595 50.2967L58.4425 73.3259C59.1272 74.3797 59.3147 75.6746 58.9551 76.8776C58.5936 78.0882 57.7215 79.0732 56.5625 79.5819C41.2734 86.297 28.9852 98.4934 24.4103 103.426C23.6242 104.273 22.5551 104.757 21.398 104.79C21.3578 104.79 21.3177 104.79 21.2775 104.79L21.2756 104.791ZM2.04663 86.7024L18.8887 102.976C19.56 103.625 20.4398 103.965 21.3751 103.942C22.3026 103.917 23.1595 103.529 23.7887 102.85C28.398 97.8795 40.7857 85.5855 56.222 78.8073C57.1535 78.398 57.8535 77.6063 58.1442 76.6366C58.433 75.6726 58.2819 74.6341 57.733 73.7888L42.7499 50.7595C41.7439 49.2142 39.7185 48.7341 38.1349 49.6655C32.1734 53.1808 19.5313 62.0494 1.86494 81.9516C0.638983 83.3306 0.721223 85.4172 2.05046 86.7024H2.04663Z" fill="black"/>
<path d="M5.30538 85.5742C5.09882 85.5742 4.91904 85.4231 4.88653 85.2146C4.8521 84.9832 5.01084 84.7671 5.24226 84.7326L25.9516 81.6056C29.6084 81.0528 32.5996 78.5474 33.7606 75.0665L40.642 54.4165C40.7166 54.1946 40.9557 54.0742 41.1775 54.1487C41.3994 54.2233 41.5199 54.4624 41.4453 54.6843L34.5638 75.3343C33.3016 79.1192 30.0502 81.8446 26.0778 82.4433L5.36849 85.5703C5.34746 85.5742 5.32642 85.5761 5.30538 85.5761V85.5742Z" fill="black"/>
<path d="M311.433 249.858L283.861 233.89C282.735 233.238 281.232 233.586 280.503 234.67L245.88 286.224C245.153 287.308 245.476 288.714 246.603 289.368L274.174 305.336C275.301 305.988 276.804 305.64 277.533 304.555L312.156 253.002C312.883 251.918 312.559 250.512 311.433 249.858Z" fill="white"/>
<path d="M275.408 306.084C274.911 306.084 274.409 305.959 273.962 305.701L246.39 289.733C245.744 289.358 245.296 288.761 245.134 288.054C244.969 287.344 245.109 286.61 245.528 285.986L280.151 234.433C281 233.171 282.758 232.761 284.074 233.523L311.645 249.491C312.292 249.866 312.739 250.462 312.902 251.17C313.066 251.879 312.927 252.614 312.508 253.237L277.885 304.791C277.326 305.623 276.37 306.084 275.408 306.084ZM282.62 233.984C281.935 233.984 281.255 234.313 280.855 234.905L246.232 286.459C245.945 286.885 245.849 287.384 245.96 287.863C246.071 288.341 246.375 288.744 246.817 288.999L274.388 304.967C275.326 305.51 276.578 305.217 277.183 304.316L311.806 252.763C312.093 252.337 312.188 251.837 312.077 251.359C311.967 250.881 311.662 250.478 311.223 250.223L283.651 234.255C283.332 234.07 282.976 233.982 282.622 233.982L282.62 233.984Z" fill="black"/>
<path d="M289.651 237.243L288.913 238.342C288.126 239.511 288.476 241.029 289.693 241.733L301.283 248.446C302.499 249.15 304.121 248.773 304.905 247.605L305.644 246.505L289.649 237.243H289.651Z" fill="black"/>
<path d="M296.154 244.097C295.712 243.841 295.586 243.29 295.871 242.864C296.155 242.439 296.746 242.301 297.188 242.558C297.63 242.814 297.756 243.365 297.471 243.791C297.186 244.216 296.595 244.353 296.154 244.097Z" fill="white"/>
<path d="M305.085 257.699L279.07 242.632L280.593 240.366L306.608 255.431L305.085 257.699Z" fill="black"/>
<path d="M293.843 274.861C293.77 274.861 293.698 274.842 293.631 274.804L267.616 259.738C267.515 259.679 267.442 259.581 267.415 259.467C267.388 259.352 267.411 259.231 267.476 259.136L277.605 244.053C277.73 243.868 277.976 243.81 278.17 243.923L304.184 258.989C304.286 259.048 304.358 259.145 304.385 259.26C304.412 259.375 304.389 259.495 304.324 259.591L294.195 274.674C294.115 274.794 293.981 274.861 293.843 274.861ZM268.433 259.231L293.713 273.872L303.37 259.493L278.089 244.853L268.433 259.231Z" fill="black"/>
<path d="M304.762 255.938C304.559 256.24 304.142 256.336 303.828 256.154C303.515 255.972 303.425 255.58 303.628 255.28C303.83 254.978 304.247 254.882 304.561 255.064C304.875 255.246 304.965 255.638 304.762 255.938Z" fill="white"/>
<path d="M286.83 285.302C286.757 285.302 286.684 285.282 286.618 285.244L260.603 270.179C260.501 270.12 260.429 270.022 260.402 269.907C260.375 269.793 260.398 269.672 260.463 269.576L266.778 260.174C266.903 259.989 267.149 259.931 267.343 260.044L293.357 275.109C293.459 275.169 293.531 275.266 293.558 275.381C293.585 275.496 293.562 275.616 293.497 275.712L287.182 285.114C287.101 285.235 286.968 285.302 286.83 285.302ZM261.419 269.672L286.7 284.313L292.541 275.614L267.26 260.974L261.419 269.672Z" fill="black"/>
<path d="M279.593 296.079C279.52 296.079 279.447 296.06 279.38 296.022L253.366 280.956C253.264 280.897 253.192 280.799 253.165 280.685C253.138 280.57 253.161 280.449 253.226 280.354L259.541 270.952C259.666 270.766 259.912 270.709 260.105 270.822L286.12 285.887C286.222 285.946 286.294 286.044 286.321 286.158C286.348 286.273 286.325 286.394 286.26 286.489L279.945 295.892C279.864 296.012 279.73 296.079 279.593 296.079ZM254.182 280.449L279.463 295.09L285.304 286.392L260.023 271.751L254.182 280.449Z" fill="black"/>
<path d="M274.494 303.672C274.421 303.672 274.348 303.653 274.281 303.614L248.266 288.549C248.165 288.49 248.092 288.392 248.066 288.278C248.039 288.163 248.062 288.042 248.127 287.947L252.304 281.727C252.428 281.541 252.675 281.484 252.868 281.597L278.883 296.662C278.984 296.722 279.057 296.819 279.084 296.934C279.11 297.049 279.088 297.169 279.022 297.265L274.845 303.484C274.765 303.605 274.631 303.672 274.494 303.672ZM249.083 288.042L274.363 302.683L278.068 297.167L252.788 282.526L249.083 288.042Z" fill="black"/>
<path d="M263.846 114.068C263.795 114.068 263.741 114.058 263.69 114.037C262.071 113.389 260.302 112.327 260.228 112.283C260.027 112.163 259.962 111.903 260.084 111.702C260.205 111.501 260.465 111.436 260.666 111.558C260.683 111.57 262.45 112.629 264.005 113.251C264.223 113.337 264.328 113.584 264.24 113.802C264.173 113.968 264.015 114.068 263.846 114.068Z" fill="black"/>
<path d="M280.026 138.722L286.468 142.406C287.002 142.712 287.682 142.523 287.987 141.985L307.887 106.922C308.227 106.323 308.021 105.562 307.426 105.222L291.102 95.8866L280.028 138.722H280.026Z" fill="white"/>
<path d="M280.027 138.722L286.468 142.406C286.782 142.586 287.145 142.593 287.453 142.463C287.453 142.463 287.97 142.228 288.542 141.224C289.033 140.36 307.742 107.177 307.742 107.177C308.153 106.45 307.946 105.69 307.352 105.35L291.028 96.0148L280.025 138.722H280.027Z" fill="white"/>
<path d="M287.013 142.976C286.751 142.976 286.493 142.907 286.258 142.773L279.816 139.09C279.614 138.973 279.543 138.715 279.659 138.512C279.776 138.309 280.034 138.238 280.237 138.355L286.679 142.039C286.866 142.146 287.086 142.159 287.287 142.073C287.287 142.073 287.7 141.846 288.174 141.014C288.66 140.161 307.187 107.301 307.374 106.968C307.658 106.471 307.562 105.956 307.143 105.717L290.819 96.3819C290.617 96.2652 290.546 96.007 290.662 95.8043C290.779 95.6015 291.037 95.5308 291.24 95.6474L307.564 104.983C308.386 105.453 308.621 106.486 308.111 107.387C307.923 107.718 289.396 140.579 288.911 141.434C288.287 142.526 287.694 142.819 287.629 142.85C287.428 142.936 287.22 142.978 287.015 142.978L287.013 142.976Z" fill="black"/>
<path d="M297.965 118.147L278.871 140.272C278.604 140.583 278.154 140.662 277.799 140.457L240.157 118.931C239.689 118.663 239.582 118.03 239.935 117.619L268.888 84.0727C269.156 83.7609 269.605 83.6825 269.961 83.8872L307.602 105.413C308.071 105.681 308.178 106.314 307.824 106.725L299.893 115.928L297.967 118.147H297.965Z" fill="white"/>
<path d="M278.219 140.993C278.003 140.993 277.785 140.937 277.588 140.824L239.947 119.298C239.614 119.107 239.386 118.782 239.32 118.401C239.255 118.021 239.362 117.634 239.612 117.342L268.565 83.7953C268.964 83.3306 269.638 83.2158 270.167 83.518L307.809 105.044C308.141 105.235 308.369 105.56 308.436 105.941C308.501 106.322 308.394 106.708 308.143 107.001L300.212 116.204C300.059 116.382 299.791 116.401 299.615 116.248C299.437 116.095 299.418 115.827 299.571 115.651L307.503 106.448C307.589 106.348 307.625 106.214 307.602 106.084C307.589 106.008 307.545 105.868 307.39 105.78L269.748 84.2543C269.571 84.153 269.343 84.1912 269.207 84.35L240.255 117.896C240.169 117.996 240.132 118.128 240.155 118.26C240.169 118.336 240.213 118.476 240.368 118.564L278.009 140.09C278.187 140.191 278.414 140.151 278.55 139.994L297.645 117.87C297.798 117.692 298.066 117.673 298.242 117.826C298.42 117.979 298.439 118.246 298.286 118.422L279.193 140.547C278.942 140.838 278.585 140.993 278.221 140.993H278.219Z" fill="black"/>
<path d="M271.82 137.762C271.779 137.77 271.741 137.777 271.703 137.785L271.82 137.762Z" fill="black"/>
<path d="M262.764 96.0474L269.938 100.152L264.759 106.151L257.585 102.049L262.764 96.0474Z" fill="white"/>
<path d="M264.759 106.576C264.686 106.576 264.615 106.557 264.548 106.521L257.374 102.418C257.265 102.355 257.189 102.246 257.168 102.122C257.147 101.997 257.181 101.869 257.265 101.774L262.445 95.7719C262.577 95.6189 262.8 95.5807 262.976 95.6801L270.15 99.7826C270.259 99.8457 270.336 99.9547 270.357 100.079C270.378 100.203 270.344 100.331 270.259 100.427L265.08 106.429C264.998 106.524 264.879 106.576 264.759 106.576ZM258.241 101.938L264.667 105.612L269.282 100.265L262.856 96.5905L258.241 101.938Z" fill="black"/>
<path d="M256.445 103.346L263.619 107.45L258.44 113.45L251.264 109.347L256.445 103.346Z" fill="white"/>
<path d="M258.44 113.874C258.367 113.874 258.296 113.855 258.229 113.819L251.055 109.716C250.946 109.653 250.87 109.544 250.849 109.42C250.828 109.296 250.862 109.167 250.946 109.072L256.125 103.07C256.257 102.917 256.479 102.879 256.657 102.978L263.831 107.081C263.94 107.144 264.017 107.253 264.038 107.377C264.059 107.502 264.024 107.63 263.94 107.725L258.761 113.727C258.679 113.823 258.56 113.874 258.44 113.874ZM251.922 109.234L258.348 112.908L262.963 107.561L256.537 103.887L251.922 109.234Z" fill="black"/>
<path d="M271.394 100.984L278.57 105.086L273.388 111.088L266.214 106.985L271.394 100.984Z" fill="white"/>
<path d="M273.389 111.51C273.316 111.51 273.245 111.491 273.178 111.455L266.004 107.353C265.895 107.289 265.819 107.18 265.798 107.056C265.776 106.932 265.811 106.804 265.895 106.708L271.074 100.706C271.206 100.553 271.428 100.515 271.606 100.615L278.78 104.717C278.889 104.78 278.966 104.889 278.987 105.013C279.008 105.138 278.973 105.266 278.889 105.362L273.71 111.363C273.628 111.459 273.509 111.51 273.389 111.51ZM266.87 106.872L273.297 110.547L277.912 105.199L271.486 101.525L266.87 106.872Z" fill="black"/>
<path d="M265.074 108.282L272.248 112.384L267.069 118.386L259.895 114.284L265.074 108.282Z" fill="white"/>
<path d="M267.069 118.809C266.997 118.809 266.926 118.79 266.859 118.753L259.685 114.651C259.576 114.588 259.499 114.479 259.478 114.354C259.457 114.23 259.492 114.102 259.576 114.006L264.755 108.005C264.887 107.852 265.111 107.813 265.287 107.913L272.461 112.015C272.57 112.078 272.646 112.187 272.667 112.312C272.688 112.436 272.654 112.564 272.57 112.66L267.391 118.661C267.308 118.757 267.19 118.809 267.069 118.809ZM260.551 114.169L266.978 117.843L271.593 112.495L265.166 108.821L260.551 114.169Z" fill="black"/>
<path d="M280.025 105.918L287.199 110.02L282.018 116.022L274.844 111.92L280.025 105.918Z" fill="white"/>
<path d="M282.018 116.447C281.945 116.447 281.874 116.428 281.808 116.391L274.633 112.289C274.524 112.226 274.448 112.117 274.427 111.992C274.406 111.868 274.44 111.74 274.524 111.644L279.706 105.643C279.838 105.49 280.061 105.451 280.237 105.551L287.411 109.653C287.52 109.716 287.597 109.825 287.618 109.95C287.639 110.074 287.605 110.202 287.52 110.298L282.341 116.299C282.259 116.395 282.14 116.447 282.02 116.447H282.018ZM275.5 111.807L281.926 115.481L286.541 110.133L280.117 106.459L275.5 111.807Z" fill="black"/>
<path d="M273.704 113.216L280.878 117.319L275.699 123.32L268.525 119.218L273.704 113.216Z" fill="white"/>
<path d="M275.699 123.745C275.626 123.745 275.555 123.726 275.488 123.69L268.314 119.587C268.205 119.524 268.129 119.415 268.108 119.291C268.087 119.166 268.121 119.038 268.205 118.943L273.385 112.941C273.516 112.788 273.74 112.75 273.916 112.849L281.09 116.952C281.199 117.015 281.276 117.124 281.297 117.248C281.318 117.372 281.283 117.501 281.199 117.596L276.02 123.598C275.938 123.693 275.819 123.745 275.699 123.745ZM269.181 119.107L275.607 122.781L280.222 117.434L273.796 113.76L269.181 119.107Z" fill="black"/>
<path d="M288.655 110.852L295.829 114.957L290.649 120.958L283.473 116.854L288.655 110.852Z" fill="white"/>
<path d="M290.647 121.381C290.575 121.381 290.504 121.362 290.437 121.326L283.263 117.223C283.154 117.16 283.077 117.051 283.056 116.927C283.035 116.802 283.07 116.674 283.154 116.579L288.333 110.577C288.465 110.424 288.687 110.386 288.865 110.485L296.039 114.588C296.148 114.651 296.224 114.76 296.245 114.884C296.266 115.008 296.232 115.137 296.148 115.232L290.969 121.234C290.886 121.33 290.768 121.381 290.647 121.381ZM284.129 116.743L290.554 120.417L295.169 115.07L288.742 111.396L284.127 116.743H284.129Z" fill="black"/>
<path d="M282.334 118.153L289.508 122.255L284.328 128.257L277.154 124.152L282.334 118.153Z" fill="white"/>
<path d="M284.328 128.68C284.256 128.68 284.185 128.66 284.118 128.624L276.944 124.522C276.835 124.459 276.758 124.349 276.737 124.225C276.716 124.101 276.751 123.973 276.835 123.877L282.014 117.875C282.146 117.722 282.368 117.684 282.546 117.784L289.72 121.886C289.829 121.949 289.905 122.058 289.926 122.183C289.947 122.307 289.913 122.435 289.829 122.531L284.65 128.532C284.567 128.628 284.449 128.68 284.328 128.68ZM277.81 124.042L284.236 127.716L288.851 122.368L282.425 118.694L277.81 124.042Z" fill="black"/>
<path d="M273.048 90.1317C272.977 90.1317 272.904 90.1145 272.837 90.0762C270.875 88.9535 270.19 86.4347 271.311 84.4609C271.856 83.5008 272.74 82.8123 273.801 82.5216C274.855 82.2328 275.959 82.3724 276.907 82.9136C276.98 82.9557 277.053 82.9997 277.122 83.0456C277.317 83.1737 277.372 83.4358 277.244 83.6328C277.116 83.8278 276.854 83.8833 276.657 83.7552C276.601 83.7188 276.546 83.6844 276.487 83.6519C275.735 83.2216 274.863 83.1125 274.027 83.3401C273.186 83.5716 272.484 84.1186 272.051 84.8798C271.16 86.45 271.703 88.4505 273.262 89.3418C273.465 89.4584 273.536 89.7166 273.419 89.9194C273.34 90.0571 273.197 90.1336 273.052 90.1336L273.048 90.1317Z" fill="black"/>
<path d="M277.881 92.8955C277.81 92.8955 277.737 92.8783 277.67 92.84C275.708 91.7173 275.023 89.1985 276.144 87.2247C276.689 86.2646 277.573 85.5761 278.634 85.2854C279.688 84.9966 280.792 85.1362 281.74 85.6774C281.813 85.7195 281.884 85.7635 281.955 85.8075C282.15 85.9356 282.205 86.1977 282.077 86.3946C281.949 86.5897 281.687 86.6452 281.49 86.517C281.434 86.4807 281.377 86.4463 281.32 86.4138C280.568 85.9834 279.694 85.8725 278.858 86.102C278.017 86.3334 277.315 86.8804 276.882 87.6416C275.991 89.2099 276.534 91.2124 278.093 92.1037C278.296 92.2203 278.367 92.4785 278.25 92.6813C278.172 92.819 278.028 92.8955 277.883 92.8955H277.881Z" fill="black"/>
<path d="M282.714 95.659C282.643 95.659 282.57 95.6417 282.503 95.6035C280.541 94.4808 279.856 91.962 280.977 89.9882C281.522 89.0281 282.406 88.3396 283.465 88.0488C284.519 87.76 285.623 87.8997 286.572 88.4409C286.644 88.483 286.715 88.527 286.786 88.571C286.981 88.6991 287.036 88.9611 286.908 89.1581C286.78 89.3532 286.518 89.4087 286.321 89.2805C286.266 89.2442 286.208 89.2098 286.151 89.1754C285.399 88.745 284.525 88.636 283.691 88.8636C282.85 89.095 282.148 89.642 281.715 90.4032C280.824 91.9734 281.367 93.974 282.926 94.8652C283.129 94.9819 283.2 95.2401 283.083 95.4428C283.005 95.5805 282.861 95.657 282.716 95.657L282.714 95.659Z" fill="black"/>
<path d="M287.545 98.4226C287.474 98.4226 287.402 98.4054 287.335 98.3672C285.372 97.2445 284.688 94.7256 285.808 92.7519C286.354 91.7918 287.237 91.1032 288.297 90.8125C289.35 90.5237 290.454 90.6633 291.403 91.2046C291.475 91.2467 291.546 91.2907 291.617 91.3366C291.812 91.4647 291.867 91.7267 291.739 91.9237C291.611 92.1188 291.349 92.1743 291.152 92.0461C291.097 92.0098 291.041 91.9754 290.982 91.9428C290.23 91.5125 289.356 91.4016 288.52 91.6311C287.679 91.8625 286.977 92.4095 286.545 93.1707C285.653 94.7409 286.197 96.7415 287.755 97.6327C287.958 97.7494 288.029 98.0076 287.912 98.2103C287.834 98.348 287.69 98.4245 287.545 98.4245V98.4226Z" fill="black"/>
<path d="M292.378 101.186C292.308 101.186 292.235 101.169 292.168 101.131C290.206 100.008 289.521 97.4894 290.642 95.5156C291.187 94.5555 292.07 93.867 293.13 93.5763C294.184 93.2875 295.287 93.4271 296.236 93.9683C296.309 94.0104 296.379 94.0544 296.45 94.0984C296.645 94.2265 296.701 94.4885 296.573 94.6855C296.444 94.8806 296.182 94.9361 295.985 94.8079C295.93 94.7716 295.873 94.7372 295.815 94.7028C295.064 94.2724 294.189 94.1615 293.354 94.391C292.512 94.6224 291.81 95.1694 291.378 95.9306C290.487 97.5008 291.03 99.5014 292.589 100.393C292.791 100.509 292.862 100.768 292.745 100.97C292.667 101.106 292.524 101.184 292.378 101.184V101.186Z" fill="black"/>
<path d="M297.209 103.95C297.139 103.95 297.066 103.933 296.999 103.895C295.037 102.772 294.352 100.253 295.473 98.2793C296.018 97.3192 296.901 96.6306 297.961 96.3399C299.015 96.0511 300.118 96.1907 301.067 96.732C301.14 96.7741 301.21 96.8181 301.281 96.8621C301.476 96.9902 301.532 97.2522 301.404 97.4492C301.275 97.6443 301.013 97.6998 300.816 97.5716C300.761 97.5353 300.704 97.5009 300.646 97.4664C299.895 97.0361 299.021 96.9271 298.185 97.1547C297.343 97.3861 296.641 97.9331 296.209 98.6943C295.318 100.265 295.861 102.265 297.42 103.156C297.622 103.273 297.693 103.531 297.577 103.734C297.498 103.872 297.355 103.948 297.209 103.948V103.95Z" fill="black"/>
<path d="M301.767 106.555C301.696 106.555 301.623 106.538 301.556 106.5C299.594 105.377 298.909 102.858 300.03 100.884C300.575 99.9241 301.459 99.2356 302.52 98.9449C303.574 98.6561 304.678 98.7957 305.626 99.337C306.868 100.047 307.64 101.33 307.69 102.768C307.698 103.001 307.516 103.198 307.281 103.206C307.036 103.218 306.85 103.032 306.843 102.797C306.803 101.653 306.191 100.636 305.204 100.071C304.452 99.6411 303.578 99.5321 302.744 99.7596C301.903 99.9911 301.201 100.538 300.768 101.299C299.877 102.869 300.42 104.87 301.979 105.761C302.182 105.878 302.253 106.136 302.136 106.339C302.058 106.477 301.914 106.553 301.769 106.553L301.767 106.555Z" fill="black"/>
<path d="M111.826 316.805C111.826 316.805 97.1776 284.699 105.581 243.078C105.581 243.078 128.284 262.1 120.1 316.805H111.828H111.826Z" fill="white"/>
<path d="M120.098 317.228H111.826C111.66 317.228 111.51 317.131 111.442 316.98C111.294 316.656 96.8334 284.271 105.166 242.992C105.195 242.845 105.3 242.726 105.442 242.676C105.583 242.627 105.74 242.655 105.853 242.751C106.088 242.948 111.663 247.708 116.301 259.268C120.566 269.894 124.759 288.513 120.517 316.867C120.486 317.073 120.308 317.228 120.098 317.228ZM112.103 316.381H119.733C123.85 288.461 119.733 270.127 115.542 259.65C111.811 250.325 107.366 245.407 105.847 243.908C98.2621 282.664 110.791 313.328 112.103 316.381Z" fill="black"/>
<path d="M115.408 313.881C115.408 313.881 115.393 313.881 115.385 313.881C115.152 313.868 114.972 313.669 114.986 313.436C116.106 292.908 106.851 249.093 106.758 248.653C106.71 248.424 106.855 248.2 107.085 248.15C107.312 248.102 107.538 248.248 107.588 248.477C107.682 248.919 116.961 292.841 115.833 313.481C115.821 313.707 115.634 313.881 115.41 313.881H115.408Z" fill="black"/>
<path d="M128.794 264.759C128.794 264.759 109.923 298.856 121.274 313.61H127.346C127.346 313.61 139.482 286.956 128.794 264.759Z" fill="white"/>
<path d="M127.346 314.034H121.274C121.142 314.034 121.018 313.973 120.937 313.87C116.139 307.635 115.949 297.425 120.371 283.525C123.645 273.235 128.373 264.642 128.421 264.556C128.498 264.418 128.643 264.332 128.804 264.338C128.962 264.342 129.104 264.435 129.173 264.577C139.824 286.698 127.851 313.52 127.729 313.787C127.66 313.938 127.509 314.036 127.342 314.036L127.346 314.034ZM121.484 313.187H127.069C128.23 310.473 138.099 286.181 128.769 265.705C126.137 270.732 111.596 299.933 121.484 313.187Z" fill="black"/>
<path d="M124.108 314.937C123.883 314.937 123.693 314.757 123.686 314.53C123.139 300.453 127.872 269.829 127.92 269.521C127.956 269.29 128.173 269.133 128.404 269.167C128.635 269.204 128.794 269.42 128.758 269.651C128.71 269.957 123.99 300.503 124.533 314.497C124.543 314.73 124.361 314.927 124.126 314.937C124.12 314.937 124.114 314.937 124.108 314.937Z" fill="black"/>
<path d="M90.5314 277.319C90.5314 277.319 106.608 282.804 112.428 315.277H106.105C106.105 315.277 92.9087 297.443 90.5314 277.319Z" fill="white"/>
<path d="M112.428 315.7H106.106C105.972 315.7 105.845 315.637 105.765 315.528C105.633 315.348 92.4747 297.372 90.1107 277.368C90.0935 277.223 90.1528 277.081 90.2656 276.99C90.3785 276.898 90.5315 276.871 90.6692 276.919C90.8375 276.976 94.8501 278.39 99.6181 283.842C103.984 288.838 109.824 298.332 112.847 315.203C112.87 315.327 112.836 315.453 112.756 315.549C112.675 315.644 112.557 315.7 112.43 315.7H112.428ZM106.322 314.853H111.922C106.823 287.161 94.0697 279.463 91.0441 278.003C93.473 296.448 104.992 312.996 106.322 314.853Z" fill="black"/>
<path d="M108.972 314.784C108.768 314.784 108.59 314.637 108.556 314.43C106.163 299.967 95.8083 285.405 95.7031 285.26C95.5673 285.07 95.6094 284.804 95.8006 284.669C95.9919 284.533 96.2558 284.575 96.3916 284.766C96.4968 284.913 106.966 299.638 109.391 314.292C109.43 314.524 109.273 314.742 109.043 314.78C109.02 314.784 108.997 314.786 108.974 314.786L108.972 314.784Z" fill="black"/>
<path d="M96.7339 312.699H136.397L137.286 331.46C137.504 336.059 133.834 339.907 129.228 339.907H106.576C101.127 339.907 96.7129 335.487 96.7167 330.038L96.732 312.697L96.7339 312.699Z" fill="black"/>
<path d="M186.206 16.7024H175.815V133.618H186.206V16.7024Z" fill="white"/>
<path d="M175.815 134.04C175.582 134.04 175.392 133.851 175.392 133.618V16.7024C175.392 16.4691 175.582 16.2797 175.815 16.2797C176.048 16.2797 176.238 16.4691 176.238 16.7024V133.618C176.238 133.851 176.048 134.04 175.815 134.04Z" fill="black"/>
<path d="M186.206 134.04C185.972 134.04 185.783 133.851 185.783 133.618V16.7024C185.783 16.4691 185.972 16.2797 186.206 16.2797C186.439 16.2797 186.628 16.4691 186.628 16.7024V133.618C186.628 133.851 186.439 134.04 186.206 134.04Z" fill="black"/>
<path d="M218.465 49.3749L259.945 61.4394L289.385 28.6962L218.465 49.3749Z" fill="white"/>
<path d="M259.945 61.862C259.905 61.862 259.866 61.8563 259.826 61.8448L218.347 49.7803C218.165 49.7287 218.041 49.5623 218.041 49.373C218.041 49.1836 218.165 49.0191 218.347 48.9656L289.266 28.2869C289.448 28.2334 289.643 28.3079 289.743 28.4686C289.844 28.6293 289.825 28.8358 289.699 28.9773L260.259 61.7186C260.176 61.8085 260.062 61.8582 259.943 61.8582L259.945 61.862ZM219.98 49.3749L259.807 60.9574L288.075 29.5186L219.98 49.373V49.3749Z" fill="black"/>
<path d="M239.132 68.8409L233.343 53.703L279.181 34.3765L240.633 55.8221L249.305 58.3448L239.132 68.8409Z" fill="white"/>
<path d="M239.132 69.2637C239.103 69.2637 239.075 69.2618 239.048 69.2541C238.906 69.2254 238.79 69.126 238.738 68.9902L232.949 53.8522C232.867 53.638 232.97 53.3989 233.18 53.3109L279.019 33.9844C279.227 33.8965 279.466 33.9864 279.564 34.1891C279.663 34.3918 279.585 34.6347 279.39 34.7456L241.729 55.6978L249.426 57.9355C249.569 57.9776 249.678 58.0905 249.716 58.2339C249.755 58.3773 249.714 58.5303 249.611 58.6374L239.438 69.1336C239.358 69.2159 239.247 69.2618 239.134 69.2618L239.132 69.2637ZM233.886 53.9325L239.291 68.0683L248.511 58.5552L240.517 56.2295C240.352 56.1817 240.234 56.0402 240.215 55.87C240.196 55.6997 240.28 55.5353 240.429 55.453L272.174 37.7924L233.886 53.9344V53.9325Z" fill="black"/>
<path d="M239.66 64.6925C239.643 64.6925 239.628 64.6925 239.61 64.6906C239.379 64.6638 239.211 64.4535 239.238 64.222L240.213 55.7761C240.24 55.5428 240.45 55.3783 240.682 55.4032C240.913 55.43 241.081 55.6403 241.054 55.8718L240.079 64.3177C240.054 64.5338 239.871 64.6925 239.658 64.6925H239.66Z" fill="black"/>
<path d="M154.237 341.772C151.397 341.772 148.524 341.694 145.699 341.541C145.466 341.527 145.286 341.328 145.3 341.095C145.313 340.862 145.514 340.684 145.745 340.695C148.555 340.848 151.412 340.927 154.237 340.927C168.843 340.927 183.293 338.877 197.182 334.833C197.406 334.768 197.641 334.896 197.706 335.122C197.771 335.346 197.643 335.581 197.417 335.648C183.45 339.714 168.922 341.774 154.235 341.774L154.237 341.772Z" fill="black"/>
<path d="M242.368 314.036C242.234 314.036 242.102 313.973 242.02 313.856C241.886 313.665 241.932 313.401 242.123 313.267C246.285 310.352 250.349 307.193 254.205 303.878C254.383 303.725 254.651 303.746 254.802 303.922C254.953 304.098 254.934 304.368 254.756 304.519C250.881 307.853 246.794 311.029 242.609 313.96C242.534 314.011 242.45 314.036 242.366 314.036H242.368Z" fill="black"/>
<path d="M105.191 42.13C105.013 42.13 104.849 42.0191 104.789 41.8412C104.715 41.6194 104.833 41.3784 105.055 41.3038C120.859 35.9907 137.406 33.2978 154.235 33.2978C157.002 33.2978 159.803 33.3724 162.557 33.5177C162.79 33.5292 162.97 33.73 162.956 33.9634C162.945 34.1967 162.744 34.3765 162.511 34.3631C159.772 34.2177 156.987 34.1431 154.233 34.1431C137.494 34.1431 121.039 36.8227 105.323 42.1052C105.279 42.1205 105.233 42.1281 105.187 42.1281L105.191 42.13Z" fill="black"/>
<path d="M92.4478 47.0587C92.2852 47.0587 92.1303 46.9649 92.0595 46.8062C91.9658 46.592 92.0634 46.3414 92.2776 46.2477C94.0601 45.4655 95.8828 44.7062 97.6921 43.9928C97.9101 43.9067 98.1549 44.0139 98.241 44.2319C98.327 44.4499 98.2199 44.6947 98.0019 44.7808C96.2022 45.4904 94.391 46.2439 92.618 47.0242C92.5626 47.0491 92.5052 47.0606 92.4478 47.0606V47.0587Z" fill="black"/>
<path d="M5.30564 149.368C5.27121 149.368 5.23487 149.364 5.20045 149.354C4.97476 149.295 4.83706 149.066 4.89635 148.838C7.97558 136.923 12.4988 125.377 18.3436 114.521C18.4545 114.314 18.7108 114.238 18.9174 114.349C19.1239 114.46 19.2004 114.716 19.0895 114.922C13.2772 125.719 8.77695 137.2 5.71684 149.05C5.66711 149.242 5.49498 149.368 5.30755 149.368H5.30564Z" fill="black"/>
<path d="M16.5877 256.67C16.4328 256.67 16.2817 256.584 16.209 256.437C5.45273 234.932 0 211.752 0 187.535C0 176.484 1.17432 165.454 3.49044 154.752C3.54016 154.522 3.76585 154.379 3.99344 154.426C4.22295 154.476 4.36831 154.702 4.31858 154.929C2.01393 165.573 0.847268 176.543 0.847268 187.533C0.847268 211.618 6.2694 234.672 16.9664 256.057C17.0716 256.265 16.9855 256.519 16.777 256.625C16.7158 256.655 16.6508 256.669 16.5877 256.669V256.67Z" fill="black"/>
<path d="M31.5786 120.782C31.504 120.782 31.4294 120.763 31.3605 120.721C31.1597 120.601 31.0947 120.341 31.2152 120.14C36.4881 111.376 42.7499 103.173 49.8283 95.7584C49.989 95.5882 50.2586 95.5825 50.4269 95.745C50.5952 95.9076 50.6029 96.1754 50.4403 96.3437C43.404 103.713 37.1805 111.866 31.94 120.576C31.8597 120.708 31.7201 120.781 31.5767 120.781L31.5786 120.782Z" fill="black"/>
<path d="M24.1155 248.988C23.9549 248.988 23.7999 248.896 23.7292 248.739C15.5759 230.73 11.4409 211.496 11.4409 191.569C11.4409 169.186 16.6068 147.819 26.795 128.062C26.9021 127.853 27.1565 127.773 27.365 127.88C27.5734 127.987 27.6538 128.243 27.5467 128.45C17.4215 148.086 12.2882 169.324 12.2882 191.571C12.2882 211.377 16.3964 230.493 24.4999 248.391C24.5956 248.603 24.4999 248.856 24.2895 248.951C24.2322 248.976 24.1729 248.99 24.1155 248.99V248.988Z" fill="black"/>
<path d="M233.875 315.195C233.77 315.195 233.664 315.157 233.582 315.077C233.414 314.914 233.408 314.646 233.569 314.478L235.128 312.85C235.29 312.682 235.558 312.676 235.726 312.837C235.894 312.999 235.9 313.267 235.74 313.436L234.181 315.063C234.099 315.149 233.986 315.193 233.875 315.193V315.195Z" fill="black"/>
<path d="M228.42 320.891C228.315 320.891 228.21 320.852 228.127 320.772C227.959 320.61 227.953 320.342 228.114 320.173L229.673 318.546C229.835 318.378 230.103 318.372 230.271 318.532C230.44 318.695 230.446 318.963 230.285 319.131L228.726 320.759C228.644 320.845 228.531 320.889 228.42 320.889V320.891Z" fill="black"/>
<path d="M229.948 315.283C229.841 315.283 229.734 315.243 229.652 315.161L228.07 313.604C227.903 313.439 227.902 313.172 228.066 313.005C228.231 312.839 228.498 312.837 228.665 313.001L230.246 314.558C230.413 314.723 230.415 314.991 230.25 315.157C230.168 315.241 230.057 315.283 229.948 315.283Z" fill="black"/>
<path d="M235.487 320.732C235.38 320.732 235.272 320.692 235.19 320.61L233.609 319.053C233.442 318.888 233.44 318.62 233.605 318.454C233.769 318.288 234.037 318.286 234.203 318.45L235.785 320.007C235.951 320.172 235.953 320.439 235.789 320.606C235.707 320.69 235.596 320.732 235.487 320.732Z" fill="black"/>
<path d="M299.571 158.561C299.466 158.561 299.361 158.523 299.279 158.443C299.11 158.28 299.105 158.013 299.265 157.844L300.824 156.217C300.987 156.048 301.254 156.043 301.423 156.203C301.591 156.366 301.597 156.634 301.436 156.802L299.877 158.429C299.795 158.516 299.682 158.56 299.571 158.56V158.561Z" fill="black"/>
<path d="M294.117 164.255C294.011 164.255 293.906 164.217 293.824 164.137C293.656 163.974 293.65 163.706 293.811 163.538L295.369 161.91C295.532 161.742 295.8 161.736 295.968 161.897C296.136 162.06 296.142 162.327 295.981 162.496L294.423 164.123C294.34 164.209 294.228 164.253 294.117 164.253V164.255Z" fill="black"/>
<path d="M295.645 158.648C295.538 158.648 295.431 158.607 295.348 158.525L293.767 156.968C293.6 156.804 293.598 156.536 293.763 156.37C293.927 156.203 294.195 156.201 294.361 156.366L295.943 157.923C296.11 158.087 296.111 158.355 295.947 158.521C295.865 158.605 295.754 158.648 295.645 158.648Z" fill="black"/>
<path d="M301.183 164.098C301.076 164.098 300.969 164.058 300.887 163.976L299.305 162.419C299.139 162.255 299.137 161.987 299.302 161.82C299.466 161.654 299.734 161.652 299.9 161.817L301.482 163.373C301.648 163.538 301.65 163.806 301.486 163.972C301.403 164.056 301.292 164.098 301.183 164.098Z" fill="black"/>
<path d="M128.712 140.388C128.595 140.388 128.479 140.34 128.395 140.245C127.253 138.96 126.442 137.397 125.983 135.601C125.926 135.373 126.061 135.144 126.289 135.087C126.516 135.029 126.746 135.165 126.803 135.393C127.228 137.056 127.978 138.5 129.028 139.684C129.183 139.858 129.167 140.126 128.991 140.283C128.911 140.354 128.81 140.39 128.71 140.39L128.712 140.388ZM125.992 130.875C125.992 130.875 125.973 130.875 125.966 130.875C125.732 130.86 125.554 130.659 125.57 130.426C125.671 128.836 125.956 127.126 126.419 125.338C126.478 125.113 126.708 124.975 126.935 125.034C127.161 125.093 127.299 125.325 127.239 125.55C126.79 127.285 126.513 128.943 126.415 130.479C126.402 130.703 126.214 130.875 125.992 130.875ZM128.431 121.044C128.379 121.044 128.326 121.035 128.272 121.014C128.056 120.926 127.951 120.679 128.037 120.463C128.659 118.916 129.385 117.351 130.196 115.814C130.305 115.607 130.562 115.527 130.768 115.636C130.975 115.745 131.055 116.001 130.946 116.208C130.148 117.72 129.433 119.258 128.823 120.779C128.756 120.943 128.597 121.044 128.429 121.044H128.431ZM133.166 112.061C133.086 112.061 133.004 112.038 132.931 111.99C132.736 111.86 132.685 111.598 132.815 111.403C133.595 110.233 134.375 109.187 135.131 108.29C135.404 107.964 135.68 107.647 135.961 107.337C136.118 107.163 136.385 107.15 136.559 107.306C136.733 107.463 136.747 107.731 136.59 107.905C136.316 108.209 136.045 108.521 135.777 108.837C135.043 109.709 134.282 110.732 133.518 111.876C133.436 111.998 133.302 112.063 133.166 112.063V112.061ZM139.918 104.508C139.797 104.508 139.679 104.457 139.595 104.359C139.444 104.181 139.466 103.914 139.644 103.763C140.937 102.669 142.328 101.643 143.777 100.714C143.974 100.588 144.236 100.645 144.363 100.842C144.489 101.039 144.432 101.301 144.235 101.427C142.815 102.336 141.456 103.34 140.191 104.409C140.111 104.476 140.015 104.508 139.918 104.508ZM148.442 99.027C148.283 99.027 148.132 98.939 148.06 98.786C147.958 98.5756 148.048 98.3212 148.259 98.2218C149.754 97.5046 151.347 96.8466 152.992 96.2652C153.212 96.1868 153.455 96.3035 153.533 96.5234C153.612 96.7434 153.495 96.9863 153.275 97.0647C151.659 97.6365 150.095 98.283 148.626 98.9868C148.566 99.0155 148.505 99.0289 148.442 99.0289V99.027ZM157.995 95.6226C157.806 95.6226 157.634 95.4945 157.584 95.3032C157.527 95.0756 157.665 94.8461 157.89 94.7887C159.478 94.3852 161.159 94.0256 162.888 93.7196C163.117 93.6794 163.337 93.8324 163.379 94.0639C163.419 94.2934 163.266 94.5133 163.035 94.5554C161.327 94.8576 159.665 95.2114 158.099 95.6111C158.064 95.6207 158.028 95.6245 157.994 95.6245L157.995 95.6226ZM167.991 93.8305C167.778 93.8305 167.595 93.6718 167.57 93.4557C167.543 93.2223 167.709 93.0139 167.941 92.9852C169.547 92.7997 171.257 92.6409 173.022 92.5185C173.256 92.5013 173.459 92.6772 173.474 92.9125C173.491 93.1458 173.315 93.3486 173.082 93.3639C171.328 93.4863 169.632 93.6412 168.038 93.8267C168.021 93.8267 168.006 93.8286 167.989 93.8286L167.991 93.8305ZM203.547 93.2587H203.543C201.638 93.2415 199.821 93.1917 198.452 93.1516C198.219 93.1439 198.035 92.9488 198.041 92.7155C198.048 92.4822 198.238 92.3024 198.477 92.3043C199.842 92.3445 201.652 92.3942 203.551 92.4114C203.784 92.4133 203.974 92.6046 203.97 92.8398C203.968 93.0732 203.779 93.2587 203.547 93.2587ZM208.631 93.2147C208.403 93.2147 208.214 93.033 208.208 92.8035C208.2 92.5702 208.386 92.3751 208.619 92.3674C210.43 92.3139 212.085 92.2201 213.674 92.0786C213.909 92.0576 214.112 92.2297 214.133 92.463C214.154 92.6964 213.982 92.901 213.749 92.9221C212.144 93.0636 210.474 93.1592 208.646 93.2128C208.642 93.2128 208.638 93.2128 208.633 93.2128L208.631 93.2147ZM178.133 93.1018C177.905 93.1018 177.718 92.9221 177.71 92.6926C177.703 92.4592 177.884 92.2622 178.118 92.2546C179.69 92.1991 181.356 92.1589 183.211 92.1341H183.216C183.448 92.1341 183.637 92.3196 183.639 92.5529C183.643 92.7863 183.456 92.9794 183.22 92.9814C181.373 93.0062 179.713 93.0445 178.146 93.1018C178.141 93.1018 178.137 93.1018 178.131 93.1018H178.133ZM193.384 92.9967C193.384 92.9967 193.376 92.9967 193.372 92.9967C192.053 92.9622 191.014 92.945 190.102 92.945L190.021 92.5223V92.945L188.302 92.9469C188.069 92.9469 187.879 92.7576 187.879 92.5242C187.879 92.2909 188.069 92.0997 188.302 92.0997H190.023L190.104 92.0977C191.022 92.0977 192.068 92.113 193.395 92.1494C193.629 92.1551 193.814 92.3502 193.808 92.5835C193.803 92.813 193.613 92.9967 193.386 92.9967H193.384ZM218.752 92.2756C218.549 92.2756 218.371 92.1303 218.335 91.9256C218.295 91.6961 218.448 91.4762 218.679 91.436C220.435 91.1281 222.08 90.7379 223.572 90.277C223.795 90.2081 224.033 90.3324 224.101 90.5562C224.17 90.78 224.046 91.0171 223.822 91.086C222.296 91.5584 220.617 91.9562 218.827 92.2699C218.802 92.2737 218.777 92.2756 218.752 92.2756ZM228.395 89.1868C228.244 89.1868 228.097 89.1046 228.02 88.9611C227.911 88.7546 227.99 88.4983 228.196 88.3893C229.738 87.5726 231.096 86.6106 232.236 85.5319C232.406 85.3712 232.674 85.3789 232.834 85.5491C232.995 85.7193 232.987 85.9871 232.817 86.1477C231.622 87.2781 230.201 88.286 228.592 89.139C228.529 89.1734 228.46 89.1887 228.393 89.1887L228.395 89.1868ZM235.585 82.2423C235.518 82.2423 235.451 82.227 235.388 82.1926C235.181 82.0835 235.101 81.8273 235.212 81.6207C235.952 80.2188 236.491 78.6505 236.814 76.9598C236.858 76.7303 237.08 76.5792 237.31 76.6232C237.539 76.6671 237.69 76.889 237.646 77.1185C237.306 78.8915 236.74 80.5382 235.961 82.0147C235.885 82.1581 235.739 82.2404 235.586 82.2404L235.585 82.2423Z" fill="black"/>
</g>
<defs>
<clipPath id="clip0_4_2109">
<rect width="329.402" height="350" fill="white"/>
</clipPath>
</defs>
</svg>
