<svg width="32" height="32" viewBox="0 0 32 32" fill="none" xmlns="http://www.w3.org/2000/svg">
<path d="M16 12.8172C15.1575 12.8228 14.3512 13.1599 13.7555 13.7556C13.1598 14.3513 12.8227 15.1576 12.8171 16C12.8171 17.742 14.2579 19.1828 16 19.1828C17.7409 19.1828 19.1828 17.742 19.1828 16C19.1828 14.259 17.7409 12.8172 16 12.8172Z" fill="#767676"/>
<path d="M16 8.5733C7.90184 8.5733 5.46805 15.5935 5.44577 15.6646L5.33331 15.9998L5.44471 16.3351C5.46805 16.4062 7.90184 23.4264 16 23.4264C24.0981 23.4264 26.5319 16.4062 26.5542 16.3351L26.6666 15.9998L26.5552 15.6646C26.5319 15.5935 24.0981 8.5733 16 8.5733ZM16 21.3045C10.3229 21.3045 8.12358 17.2241 7.59099 15.9998C8.1257 14.7713 10.3261 10.6952 16 10.6952C21.6771 10.6952 23.8764 14.7755 24.409 15.9998C23.8743 17.2284 21.6739 21.3045 16 21.3045Z" fill="#767676"/>
</svg>
